<?xml version="1.0" encoding="utf-8"?>
<!-- Generator: Adobe Illustrator 17.1.0, SVG Export Plug-In . SVG Version: 6.00 Build 0)  -->
<!DOCTYPE svg PUBLIC "-//W3C//DTD SVG 1.1//EN" "http://www.w3.org/Graphics/SVG/1.1/DTD/svg11.dtd">
<svg version="1.1" xmlns="http://www.w3.org/2000/svg" xmlns:xlink="http://www.w3.org/1999/xlink" x="0px" y="0px"
	 viewBox="0 0 1572 960" enable-background="new 0 0 1572 960" xml:space="preserve">
<g id="Layer_1" display="none">
</g>
<g id="Layer_2">
	<g>
		<g>
			<path fill="none" d="M258.3,394.7c0,0-22.8,8.8-28.4,83.7c0,0-0.7,27.6-13.8,45.8c-13,18.2-17.6,88.8-17.6,88.8
				s-9,48.2-14.1,59.1L174,718"/>
			<g>
				<g>
					<path fill="#D98AB6" d="M258.3,394.7c-8.4,2-14.1,8-18.7,13.9c-4.6,6.2-7.9,13.5-10.5,23.1c-1.4,5.2-3.7,15.7-5.3,28.5
						c-0.8,6.4-1.5,13.4-1.9,20.4c-0.5,6.5-1.7,13.2-3.4,19.5c-1.8,6.3-4.1,12.1-7,16.8c-1.1,1.8-3.7,5.4-5.1,8.6
						c-1.5,3.1-2.4,5.9-3.3,8.5c-3.2,10.2-4.2,16.7-4.3,16.7c-0.2,0-5.3,26-7.5,54.5c-0.8,12.5-5,27.9-7.3,39.7
						c-1.4,6-2.7,11.5-3.9,15.9c-0.6,2.2-1.2,4.1-1.7,5.7c-0.3,0.8-0.5,1.5-0.7,1.9l-0.1,0.4l0,0c0.5-1.4-0.7,2-0.6,1.6l0,0l0,0.1
						l0,0.1l-0.1,0.3l-0.2,1c-4.1,18.5-3.8,29.6-2.5,46.2c8.4-14.4,13.4-24.3,17.7-42.8l0.2-1l0.1-0.3l0-0.1l0-0.1l0,0
						c0.1-0.4-1,3-0.5,1.6l0,0l0.3-0.7c0.5-1,0.8-1.9,1.2-3c0.7-2,1.4-4.2,2.1-6.6c1.4-4.8,2.8-10.5,4.2-16.7
						c2.5-12.8,6.4-26.1,7.6-41.9c2.1-28,7-52.7,7.1-52.6c0.1,0.1,1.1-6.3,3.9-15.1c0.7-2.1,1.6-4.5,2.6-6.6c1-2.2,2-3.5,4.3-7.1
						c3.9-6.2,6.6-13.4,8.7-20.7c2.1-7.4,3.3-14.9,4-22.5c0.4-7.1,1.1-13.6,1.9-19.7c1.5-12.1,3.6-21.8,4.8-26.5
						c2.3-8.8,3.9-15.5,5.6-21.9C251.9,407.5,252.9,400.9,258.3,394.7z"/>
				</g>
			</g>
		</g>
	</g>
	<g>
		<g>
			<path fill="none" d="M321.2,554.3c0,0,34.7,8.7,51.3-34.2c0,0,0.4-15.4,54.3-65.6c0,0,35.9-34,25.2-50.4
				c-10.7-16.4-129.3-2.2-129.3-2.2"/>
			<g>
				<g>
					<path fill="#D98AB6" d="M321.2,554.3c14.7,7.4,32.7,6,47.2-11.1c1.9-2.3,4.5-6,7.1-10.7c1.3-2.4,2.6-5,3.7-7.9
						c0.4-1.3,0.4-0.1,1.1-3.5c0,0,0.1-0.5,0.3-0.9c0.4-0.9,0.9-2.1,1.5-3.3c5.3-9.8,15.1-21.3,24.7-31.5
						c9.7-10.4,19.3-19.5,27-26.8c7.5-7.6,11.7-13,11.7-13c-0.1-0.1,4.6-5.1,10.2-14.8c2.5-5,6.2-11.1,6-20.9
						c-0.2-4.6-2.3-11.1-8.2-14.7c-4.7-2.8-8.7-3.6-12.7-4.5c-30.8-4.7-61.8-1.1-72.5-0.8c-19.4,1.5-30.2,5.2-45.7,12
						c16.6,3.2,27.6,4.8,46.7,3.6c10-0.3,42.2-3.5,68.5,0.6c3,0.6,6.1,1.5,7.3,2.3c0.5-0.1-0.1,0.9,0.9-0.4l0.9-0.7l0.3-0.2l0.1-0.1
						l0.1,0c0.5-0.3-3.9,2.5-2,1.3l0,0.1l0.2,0.4c0.2,0.5,0.4,1.1,0.4,1.9c0.3,3.4-1.9,8.5-4,12.3c-4.5,7.8-8.8,12.6-8.7,12.6
						c0,0-3.8,4.9-10.6,11.8c-7,6.7-17.5,16.5-27.4,27.1c-10,10.8-20.2,22.3-27.1,34.9c-0.9,1.6-1.7,3.3-2.4,5.2
						c-0.4,1-0.7,1.9-1,3.4c0.7-1.9-0.2,0.5-0.3,0.6c-1,2.4-2,4.6-3,6.5c-2,3.8-4,6.6-5.4,8.3C345.7,545.5,337.7,551.3,321.2,554.3z
						"/>
				</g>
			</g>
		</g>
	</g>
	<g>
		<g>
			<path fill="none" d="M291.5,218.7c6.2,6.8,15,10.1,19.5,17c3.6,5.6,3.1,14.7,5.8,20.3c29,60.9-5.7,119.2-5.7,119.2"/>
			<g>
				<g>
					<path fill="#D98AB6" d="M291.5,218.7c1.9,9.4,7.6,15.1,11.8,19.8c1.2,1.4,2.1,2.7,3.3,9.2c0.6,3,0.9,6.9,3.2,11.8
						c1.4,3,2.8,6.2,3.9,9.3c4.7,12.5,6,24.7,6,24.7c0.1,0,1.6,12.1,0.3,25.6c-1.1,13.5-5.4,27.8-7,32.4c-3,8.6-2.4,14.2-1.9,23.6
						c8.2-4.7,13.2-9.1,16.6-18.5c1.9-5.1,6.7-20.9,7.9-36c1.5-15.1-0.4-29-0.4-28.9c0,0-1.4-13.9-6.8-28.2
						c-1.3-3.6-2.8-7.2-4.4-10.6c-0.8-1.6-1.3-4.7-1.9-7.9c-0.6-3.2-1.3-6.6-2.6-9.8c-1.5-3.5-3.3-5.5-4.4-6.9
						C305.8,219.2,300.5,221.2,291.5,218.7z"/>
				</g>
			</g>
		</g>
	</g>
	<g>
		<g>
			<path fill="none" d="M268.9,370.5c0,0,25.2-76.3-37-72.9"/>
			<g>
				<g>
					<path fill="#D98AB6" d="M268.9,370.5c6.1-3.1,9.6-5.9,10.9-11.7c0.7-3.2,2.3-12.8,2-22.1c-0.1-9.3-2.6-18-2.8-18
						c0,0.2-2.2-9.1-9.8-17c-7.6-8.1-19.1-10.7-22.4-11.1c-6.5-1-10.4,1.9-14.9,6.9c4.9,4.9,7.5,7.5,12.1,8.4
						c2.5,0.4,9.8,2.3,14,6.8c4.3,4.3,6.1,10.6,6.1,10.6c0.1-0.1,1.9,6,2,13.7c0.2,7.6-1.2,16.1-1.6,18.9
						C263.5,361.2,265.5,364.6,268.9,370.5z"/>
				</g>
			</g>
		</g>
	</g>
	<g>
		<g>
			<path fill="none" d="M13.4,380.4c0,0,7.9-40.3,48.8-29.5c0,0,50,8.3,72.2-21.6c0,0,50.3-66.6,76.1-47.3"/>
			<g>
				<g>
					<path fill="#D98AB6" d="M13.4,380.4c7.8-9.3,13.4-14,21.6-19.7c2.3-1.4,7.3-3.9,14.6-3.7c4.2,0.1,6.5,0.7,13.3,2
						c5.4,0.7,10.8,0.9,16.2,0.9c21.6,0.5,40.8-8.3,40.6-8.7c-0.1-0.1,4.8-2,11.3-7.1c3.2-2.5,6.8-6.1,9.8-10.1
						c2.6-3.4,5.7-7.1,8.9-10.8c12.7-15,28.9-28.3,34.6-31.3c5.2-3.2,8.9-5.4,12.6-7.3c3.7-1.9,7.5-3.7,13.7-2.5
						c-3-5.4-9.4-8.7-15.5-8.8c-6.2-0.3-12.5,1.5-18.8,5.3c-7.4,3.8-25.2,18.6-38.4,34.4c-3.4,3.9-6.6,7.7-9.5,11.6
						c-2.4,3.2-4.8,5.5-7.1,7.4c-4.6,3.7-8.4,5.3-8.4,5.3c0.3,0.1-14.7,7.2-33.9,7c-4.7,0-9.5-0.2-14.1-0.8c-3-0.6-10.2-2.2-15-2.1
						c-10.7-0.4-19.5,3.8-23.2,6.3C13,357.3,11.7,368.5,13.4,380.4z"/>
				</g>
			</g>
		</g>
	</g>
	<g>
		<g>
			<path fill="none" d="M272.7,201.6"/>
			<g>
				<g>
					<polygon fill="#D98AB6" points="272.7,201.6 272.7,201.6 272.7,201.6 272.7,201.6 272.7,201.6 272.7,201.6 272.7,201.6 
						272.7,201.6 					"/>
				</g>
			</g>
		</g>
	</g>
	<g>
		<g>
			<path fill="none" d="M284,199.9c0,0-13.2-33.9,6.4-79.9c0,0,21.2-62.7-19.2-88.7c0,0-12.8-13.7-42.7-6.5"/>
			<g>
				<g>
					<path fill="#D98AB6" d="M284,199.9c1.6-11.4,3.6-18,3.5-29.7c-0.2-6.3,1.5-25.6,8.2-42.2c7.6-19,7.7-37.2,7.8-37.2
						c-0.3,0.2,2.5-18.5-5.4-38.6c-3.8-10-11.3-19.2-19-24.9l-2.9-2l-0.7-0.5l-0.1-0.1l0,0c3,2.5,0.8,0.7,1.5,1.2l0,0l-0.3-0.3
						l-0.4-0.4c-0.6-0.5-1.1-0.9-1.6-1.3c-2-1.6-3.8-2.6-5.6-3.5c-3.5-1.8-6.4-2.7-8.4-3.3c-14.6-3.4-23,0.9-32,7.8
						c11.3,2.7,17.8,4.7,27.7,7.2c1.3,0.4,3.3,1,5.4,2.2c1,0.6,2.2,1.2,3.1,2c0.2,0.2,0.5,0.4,0.6,0.5l0.1,0.1l-0.1-0.1l0,0
						c0.7,0.6-1.5-1.3,1.5,1.3l0,0l0.1,0l0.5,0.4l2.1,1.5c5.6,4.2,10.9,10.7,13.9,18.3c6.2,15.3,4.2,32,4.4,31.8
						c-0.1-0.2-0.4,16.5-6.9,32.5c-7.6,18.4-9.5,40.5-9.2,47.7C272.1,183.5,276,191.3,284,199.9z"/>
				</g>
			</g>
		</g>
	</g>
	<g>
		<g>
			<path fill="none" d="M219.4,186.5c0,0,17.9-24.5-39-48c0,0-29.5-11.5-40.8,26.5c0,0-5,22.6,18.5,32l38.9,15.6
				c0,0,21.2,10.5,30.7,30"/>
			<g>
				<g>
					<path fill="#D98AB6" d="M219.4,186.5c11.1-8,9-25.5-2.9-35.6c-3.1-3.1-9.9-8.2-18.7-12.8c-4.4-2.3-9.2-4.5-14.2-6.7
						c-7.1-2.5-13.2-2.8-20-1.7c-13.9,2.3-23,13.5-26.5,20.8c-4,8-4.8,12-5.2,13.6c0.1,0.2-1.5,6.1,0.6,15.3
						c1.6,9.3,11.1,21,22.9,25c9.7,3.9,19.9,8,28.5,11.4c3.9,1.6,9.2,3.6,10.6,4.3c2.7,1.5,4.9,3,6.3,4
						c10.3,7.6,16.9,10.5,26.8,18.5c-1-12.8-5.7-22.2-17.9-31.3c-1.7-1.2-4.2-3-7.7-4.9c-4.9-2.5-7.7-3.2-12.3-5.2
						c-8.6-3.5-18.8-7.5-28.5-11.4c-17.3-6-14.1-24.1-14-23c-0.4,2.5,3.9-19.3,19.2-21.7c3.5-0.8,8.5-0.2,11.2,0.8
						c4.6,1.9,9,4,12.8,6c7.7,4.1,13.1,8.3,15.5,10.5c4.5,4,7.3,7.1,9.7,10.4C217.9,176,220.2,180.1,219.4,186.5z"/>
				</g>
			</g>
		</g>
	</g>
</g>
<g id="Layer_3">
	<linearGradient id="SVGID_1_" gradientUnits="userSpaceOnUse" x1="1384.6318" y1="1429" x2="2800" y2="1429">
		<stop  offset="0" style="stop-color:#FFFFFF"/>
		<stop  offset="1" style="stop-color:#000000"/>
	</linearGradient>
	<line display="none" fill="url(#SVGID_1_)" stroke="#B24F98" stroke-width="10" x1="1384.6" y1="1429" x2="2800" y2="1429"/>
	<g>
		<path fill="#FFFFFF" d="M570.5,683.6c-0.9,1.2-2.7,2.2-5.5,3.1c-2.8,0.9-5.6,1.5-8.5,1.9c-2.9,0.3-5.3,0.3-7.3,0
			c-2-0.3-2.6-1.2-1.9-2.5c3.7-7.7,8.2-16.3,13.5-26c5.4-9.7,11.2-20.3,17.5-31.9c6.3-11.6,12.9-24.1,19.8-37.5
			c6.9-13.4,13.8-27.7,20.7-42.9c9.8-22.2,14.5-36.2,14.1-42c-0.1-2.5-1.1-4.8-2.8-6.8c-1.7-2-4-3.6-6.8-4.9c-2.9-1.3-6.2-2-9.9-2.4
			c-3.7-0.3-7.8-0.2-12.2,0.5c-23,3.2-45.8,13.6-68.4,31.2c-9.7,7.5-18.6,15.5-26.6,24.1c-8.1,8.6-15.3,17.9-21.8,27.9
			c-12.2,18.5-17.8,33.5-16.9,45c1.2,14.5,8.8,20.6,22.9,18.3c10.3-1.5,21.4-5.9,33.4-13.3c12.9-7.7,24.3-17.1,34.1-28.3
			c10.1-11.5,19.9-25.8,29.3-42.8c4-7.3,7.1-13.7,9.5-19.1c2.3-5.4,4-10,4.8-13.9c1.3-5.7,2.6-8.6,3.7-8.8c0.7-0.2,1.2,0.8,1.5,2.8
			c0,0.8,0,1.8,0,2.8s-0.1,2.2-0.4,3.5c-0.7,4-2.1,8.7-4.2,14c-2.1,5.3-4.8,11.5-8.1,18.5c-8.7,17.8-19.4,33.9-32.1,48.3
			c-5.1,5.8-10.7,11.2-16.7,16.1c-6,4.9-12.3,9.3-18.9,13.1c-12.3,6.8-23.8,11-34.3,12.5c-19.8,3-30.5-5.4-32.1-25.3
			c-1.2-14.5,4.2-31.3,16.1-50.5c12-19.3,27.9-36.3,47.5-50.8c22-15.8,45.3-25.7,70-29.5c32.1-4.8,49,3.6,50.6,25.2
			c0.7,10-3.7,26.9-13.4,50.8c-0.4,1-0.9,2.1-1.4,3.3c-0.5,1.2-1.1,2.6-1.9,4.4c-0.7,1.8-1.6,3.8-2.8,6.3c-1.1,2.4-2.5,5.4-4.1,8.9
			c5.6-8,10.4-14.6,14.4-19.8c4-5.2,7.8-9.9,11.3-14.3c14.2-17,27.2-29.7,38.8-38.1c11.7-8.4,21.5-12.6,29.4-12.6
			c5.6,0,9.7,1.6,12.4,4.9c2.7,3.3,4.3,8.2,4.7,14.9c0.3,5.3-0.6,12-2.6,20.1c-2.1,8.1-4.8,16.9-8.4,26.4c6-7.5,12.5-15.1,19.5-22.8
			c7-7.7,13.9-14.7,20.8-21c6.9-6.3,13.5-11.5,19.7-15.5c6.2-4,11.7-6,16.4-6c5.6,0,9.7,1.6,12.4,4.9c2.7,3.3,4.3,8.2,4.7,14.9
			c0.3,4.7-0.6,10.3-2.6,16.9c-2.1,6.6-4.8,13.8-8.3,21.5c-3.4,7.8-7.4,15.9-12,24.4c-4.5,8.5-9.1,17-13.8,25.4
			c-4.6,8.4-9.1,16.6-13.5,24.5c-4.4,7.9-8.2,15.2-11.3,21.8c-3.2,6.6-5.6,12.3-7.3,17.1c-1.7,4.8-2.1,8.4-1.2,10.8
			c0.3,1,0.7,2.2,1.3,3.5c0.6,1.3,1.5,2.1,2.6,2.3c6.3,0.3,28-12.7,28-12.7l14.6-7.8l23.7-11.5l5.5,0.5l-37.2,21
			c0,0-28.8,18-36.8,16s-9.4-6.8-11.4-10.9c-2.1-4.1-2.5-9.2-1.4-15.4c1.1-6.2,3.6-13.6,7.4-22.3c3.8-8.7,8.7-19,14.6-31
			c5.9-12,12.7-26,20.4-42.1c7.6-16.1,15.8-34.5,24.6-55.4c0.6-1.5,0.7-2.9,0.4-4.1c-0.3-1.3-0.9-2.3-1.9-3.3
			c-1-0.9-2.1-1.5-3.5-1.6c-1.4-0.2-3,0.1-4.7,0.8c-3.2,1.3-7.6,4.2-13,8.5c-5.4,4.3-11.6,9.9-18.5,16.8
			c-6.9,6.8-14.3,14.8-22.3,23.9c-8,9.1-16.2,19.1-24.5,30.1c-4.3,10-8.8,20-13.5,29.9c-4.8,9.9-9.4,19.2-13.9,27.8
			c-4.5,8.6-8.5,16.2-12.2,22.9c-3.7,6.7-6.5,11.6-8.4,14.8c-1,1.2-3,2-6.1,2.5c-3,0.5-6,0.7-9,0.5c-3-0.2-5.6-0.6-7.7-1.4
			c-2.1-0.8-2.8-1.8-1.9-3.1c0.4-1,2.3-4.3,5.7-9.8c3.4-5.5,7.6-12.5,12.5-20.9c5-8.4,10.5-17.8,16.4-28.3
			c5.9-10.4,11.7-21,17.4-31.8c5.6-10.8,10.8-21.2,15.4-31.4c4.6-10.2,8.1-19.3,10.5-27.3c2.3-8,3.2-14.5,2.6-19.4
			c-0.6-4.9-3.3-7.5-8.1-7.6c-5.3-0.2-14.1,4.9-26.4,15.2c-6,5.2-12.1,10.7-18.4,16.6c-6.2,5.9-12,12.4-17.3,19.4
			c-3.7,4.8-7.5,9.8-11.4,15c-4,5.2-8.1,10.7-12.4,16.5c-4.3,5.8-8.8,12.2-13.5,19.1c-4.7,6.9-9.6,14.6-14.7,23.1L570.5,683.6z"/>
		<path fill="#FFFFFF" d="M848,622.8c0,10.8-5.5,20.6-16.5,29.3c-8.8,6.7-16.9,10.4-24.2,11.3c-1.8,5.3-2.6,9.4-2.6,12.3
			c0,5.8,2.7,8.8,8.1,8.8c4.4,0,9.4-2.3,15-6.8c4.4-3.7,16.6-16.1,18.9-19.8c1.9-1.2,0.4,5.4,0.4,5.4s-11.6,13.6-16,17.4
			c-6.9,5.7-13.6,8.5-20.2,8.5c-11.3,0-16.9-6.3-16.9-19c0-12.8,4.9-25.8,14.7-38.9c9.8-13.1,19.1-19.6,27.7-19.6
			C844.1,611.5,848,615.3,848,622.8z M839,621.3c0-3.2-1-4.8-3.1-4.8c-3.1,0-7.5,4.7-13.2,14c-5.3,8.3-9.8,17.4-13.6,27.3
			c6.6-0.3,13.2-4.7,19.9-13C835.6,636.4,839,628.6,839,621.3z"/>
		<path fill="#FFFFFF" d="M915,615.3c0,0.5-0.4,1.5-1.3,3c-0.3,0.5-4.2,10.5-11.7,30c-6.6,17.2-9.9,27.6-9.9,31.3
			c0,2.5,0.9,3.8,2.6,3.8c3.4,0,33.2-46.3,33.2-46.3s20.3-23.7,21-23c0.7,0.7-32,48-38,58s-13,18-21.5,18c-6.9,0-10.3-3.9-10.3-11.8
			c0-2.7,1.2-7.6,3.5-14.8c-12,17.3-21.6,26-28.8,26c-7.5,0-11.2-5.3-11.2-15.8c0-14.7,6.4-28.7,19.1-42
			c12.3-12.8,25-19.3,38.1-19.3c6.6,0,11.4,0.5,14.3,1.5C914.7,614.3,915,614.8,915,615.3z M896.3,623.5c0-3-1-4.5-3.1-4.5
			c-6,0-14.1,8-24.3,24c-10.2,16-15.3,27.9-15.3,35.8c0,3,1.2,4.5,3.5,4.5c3.8,0,11.5-8.3,23.1-24.8c5.3-7.7,9.3-14.6,12-20.8
			C894.9,631.6,896.3,626.8,896.3,623.5z"/>
		<path fill="#FFFFFF" d="M1022,615.8c0-0.5-1,1.6-3.1,6.3c-3.1,7-7.2,17.1-12.3,30.3c-6.5,16.5-9.7,26-9.7,28.5s1.3,3.8,4,3.8
			c5.3,0,9.7-4.6,15.1-15.2c2.6-1,3.9-1.3,4,0.7c-2.1,4.2-3.7,8.2-7.2,12c-5,5.5-9.8,8.3-14.3,8.3c-8.4,0-12.5-3.8-12.5-11.3
			c0-5.3,2.3-14,6.8-26c3.1-8.3,5.9-14.9,8.4-19.8l-0.7-1.3c-3.7,2.3-10.8,11.3-21.3,26.8c-5.4,8.2-10.5,17.1-15.2,26.8
			c-0.9,2.2-4.4,3.7-10.6,4.5c-2.1,0.3-3.1-0.1-3.1-1.3c0-0.8,3.4-9.3,10.1-25.3c7.3-17.2,11.4-27.1,12.3-29.8l-0.9-1.3
			c-3.5,2.2-10.6,11.1-21.3,26.8c-6.9,10-12.5,18.4-16.7,25.3c-0.4,1-1.8,2.1-4,3.4c-2.2,1.3-4.2,1.9-5.9,1.9c-1.8,0-2.6-1-2.6-3
			c0-1.2,4-11,12.1-29.5c7.2-16.7,10.8-31.3,10.8-31.3l1.9-6.5v0.2l-30.5,36.8L929,635c0,0,7.2-11.1,12-16.4c2.1-2.4,7-5.5,8-5.5
			c3,0,9,3.1,9,9c0,5.3-3.8,16.7-11.4,34l0.9,0.3c4.3-6.7,10.1-14.3,17.6-23c7.5-8.7,12.8-14.1,16.1-16.4c3.2-2.3,6.8-3.4,10.8-3.4
			c2.1,0,3.1,0.7,3.1,2c0-0.2-1,2.1-3.1,6.8L979.3,651c12.6-17.8,22.7-29.3,30.4-34.5c3.2-2.3,6.5-3.5,9.7-3.5
			C1021.1,613,1022,613.9,1022,615.8z"/>
		<path fill="#FFFFFF" d="M1097,619.5c0,11.5-4.5,24.9-13.6,40.3c-9.8,16.5-19.4,24.8-28.8,24.8c-5,0-9.1-1.5-12.3-4.5
			c-6.2,15.2-14,33.5-23.5,55c-0.4,1-1.5,2-3.3,3.1c-1.8,1.1-3.4,1.6-4.8,1.6c-2.3,0-3.5-1-3.5-3c0-0.7,0.1-1.5,0.4-2.5l42.5-111
			c0.4-1.2,0.7-2.3,0.7-3.3c0-2.7,2.2-4,0.4-4c-0.6,0-3.4,3.5-6.3,6.3c-2.2,1-10.1,20.5-10.7,17.7c4.3-7,14.2-33,20.8-33
			c5.1,0,7.7,3.5,7.7,10.5c0,6-1.4,12.2-4.2,18.5c11-19.3,20.2-29,27.5-29C1093.3,607,1097,611.2,1097,619.5z M1084.7,617.5
			c0-2.8-0.7-4.3-2-4.3c-2.2,0-7.1,5.8-14.7,17.3c-6.7,10.3-13,20.9-18.7,31.8c-1.8,4.7-3.5,9.3-5.3,13.8c2.1,2.2,4.4,3.3,7,3.3
			c7,0,14.6-8.3,22.7-25C1081,639.1,1084.7,626.8,1084.7,617.5z"/>
		<path fill="#FFFFFF" d="M1264.4,614.3c0-0.5-1,1.6-3.1,6.3c-3.1,7-7.2,17.1-12.3,30.3c-6.5,16.5-9.7,26-9.7,28.5s1.3,3.8,4,3.8
			c5.3,0,19-19.4,24.4-30.1c2.6-1-1.3,9-1.2,11c-2.1,4.2-7.9,12.7-11.4,16.6c-5,5.5-9.8,8.3-14.3,8.3c-8.4,0-12.5-3.8-12.5-11.3
			c0-5.3,2.3-14,6.8-26c3.1-8.3,5.9-14.9,8.4-19.8l-0.7-1.3c-3.7,2.3-10.8,11.3-21.3,26.8c-5.4,8.2-10.5,17.1-15.2,26.8
			c-0.9,2.2-4.4,3.7-10.6,4.5c-2.1,0.3-3.1-0.1-3.1-1.3c0-0.8,3.4-9.3,10.1-25.3c7.3-17.2,11.4-27.1,12.3-29.8l-0.9-1.3
			c-3.5,2.2-10.6,11.1-21.3,26.8c-6.9,10-12.5,18.4-16.7,25.3c-0.4,1-1.8,2.1-4,3.4s-4.2,1.9-5.9,1.9s-2.6-1-2.6-3
			c0-1.2,4-11,12.1-29.5c7.2-16.7,10.8-27.1,10.8-31.3c0-3.2-1-4.8-3.1-4.8c-0.3,0-2.9,0.9-7.7,2.8c-0.6,0-1.1-0.5-1.4-1.6
			c-0.4-1.1-0.4-1.9-0.1-2.4c5.3-4.5,11.1-6.8,17.4-6.8c5.9,0,8.8,2.9,8.8,8.8c0,5.3-3.8,16.7-11.4,34l0.9,0.3
			c4.3-6.7,10.1-14.3,17.6-23c7.5-8.7,12.8-14.1,16.1-16.4c3.2-2.3,6.8-3.4,10.8-3.4c2.1,0,3.1,0.7,3.1,2c0-0.2-1,2.1-3.1,6.8
			l-12.5,28.8c12.6-17.8,22.7-29.3,30.4-34.5c3.2-2.3,6.5-3.5,9.7-3.5C1263.5,611.6,1264.4,612.5,1264.4,614.3z"/>
		<path fill="#FFFFFF" d="M1336.4,612.8c0,0.5-0.4,1.5-1.3,3c-0.3,0.5-4.2,10.5-11.7,30c-6.6,17.2-9.9,27.6-9.9,31.3
			c0,2.5,0.9,3.8,2.6,3.8c3.4,0,8.9-5.2,16.7-15.5c0.6-0.2,0.5,0.1,1.1,0.8c0.7,0.7,0.1,1,0,1.9c-7.9,12.8-14.6,19.6-23.1,19.6
			c-6.9,0-10.3-3.9-10.3-11.8c0-2.7,1.2-7.6,3.5-14.8c-12,17.3-21.6,26-28.8,26c-7.5,0-11.2-5.3-11.2-15.8c0-14.7,6.4-28.7,19.1-42
			c12.3-12.8,25-19.3,38.1-19.3c6.6,0,11.4,0.5,14.3,1.5C1336.1,611.8,1336.4,612.3,1336.4,612.8z M1317.7,621c0-3-1-4.5-3.1-4.5
			c-6,0-14.1,8-24.3,24c-10.2,16-15.3,27.9-15.3,35.8c0,3,1.2,4.5,3.5,4.5c3.8,0,11.5-8.3,23.1-24.8c5.3-7.7,9.3-14.6,12-20.8
			C1316.3,629.1,1317.7,624.3,1317.7,621z"/>
		<path fill="#FFFFFF" d="M1399.9,614.3c1.6-1.2,3.4-2,5.5-2.5c2.1-0.5,3.9-0.8,5.5-0.8c1.6,0,2.4,0.9,2.4,2.8
			c-0.1,0-0.8,1.5-2.1,4.4c-1.2,2.9-2.8,6.6-4.7,11.1c-1.9,4.5-3.9,9.4-6.1,14.8c-2.1,5.3-4.1,10.4-5.9,15.3
			c-1.8,4.8-3.3,9-4.5,12.6c-1.2,3.6-1.8,5.9-1.8,6.9c0,2.5,1.3,3.8,4,3.8c5.3,0,17.8-17.5,17.8-17.5s1.9-0.7,2.3-0.7
			c1.2,0,0.1,2.3,0.1,3.7c-2.6,5.7-6.2,10.5-10.6,14.4c-4.4,3.9-8.4,5.9-12.1,5.9c-4.3,0-7.2-0.9-8.8-2.8c-1.6-1.8-2.4-4.7-2.4-8.5
			c0-3.7,0.7-8.3,2.2-13.8c1-4,2.2-8.1,3.5-12.3h-0.4c-2.9,0-6.1,0.1-9.5,0.3c-2.5,0-4.8,0.1-7,0.3c-0.3,0.7-0.6,1.3-0.9,2l-11.7,30
			c-1.2,1.8-2.6,3-4.4,3.4c-1.8,0.4-3.7,0.6-5.7,0.6c-1.8,0-2.6-1-2.6-3c0-0.5,4-10.4,12.1-29.8c7-17.2,10.6-30.5,10.6-30.5l1.3-4.8
			c0,0-6,4.5-9,7.5s-5,5-5,5l5.3-12.3c0,0,0.8-1.8,3.5-4.5c2.7-2.7,2.4-2.7,4.3-3.5s3.5-0.5,4.4-0.5c2.1,0,3.9,0.8,5.6,2.4
			c1.7,1.6,2.5,3.8,2.5,6.6c0,4.5-2.8,13.4-8.4,26.8c1.8,0,3.8,0,6.2,0c2.8,0.2,6.2,0.3,10.1,0.3c0.1-0.3,0.3-0.7,0.4-1
			c2.2-6,4.5-11.8,7-17.5C1395.5,623.1,1397.8,618.3,1399.9,614.3z"/>
		<path fill="#FFFFFF" d="M1487.2,667.1v0.5l0.2,0.3l-0.7,1.3c-1.6,9.5-3.4,17-5.3,22.5c-2.1,6-4.1,10.7-6.1,14
			c-2,3.3-3.8,5.6-5.6,6.8c-1.8,1.2-3.3,2-4.6,2.5c-1.9,1.2-7.3-0.2-16.3-4c-2.8-1.2-5.1-2.1-6.8-2.8c-1.8-0.7-4-0.4-6.6,0.8
			c-2.6,0.8-4.9,2.5-6.7,5.1c-1.8,2.6-3.4,5.1-4.8,7.5c-1.4,2.4-2.6,4.3-3.7,5.6c-1.1,1.3-2.2,1.2-3.2-0.5c0-1.2,0.7-3.2,2.2-6
			c1.5-2.8,3.2-5.8,5.3-8.9c2.1-3.1,4.3-6,6.7-8.8s4.7-4.7,6.7-5.9c2.1-0.8,4.7-1,7.9-0.4c3.2,0.6,6.7,1.5,10.6,2.9
			c3.8,2,7.3,2.4,10.3,1.1s5.8-3.6,8-7c2.3-3.4,4.2-7.5,5.8-12.1c0.6-2,1.2-4,1.8-6c-0.4,0.5-1,1.2-1.5,2
			c-5.7,6.8-11.3,10.3-16.7,10.3c-2.2,0-4.2-1-5.9-3c-2.2-2.2-3.3-5.1-3.3-8.8c0-3.3,1.2-9,3.7-17c-13.1,19-22.8,28.5-29.3,28.5
			c-6.6,0-9.9-3.7-9.9-11c0-3.8,3-13.3,9-28.3c1.9-4.7,3.8-9.3,5.6-13.8c1.8-4.5,3.7-9,5.6-13.5c0.7-1.8,1.1-3.9,1.1-3.9
			s-7.7,5.4-7.7,4.8s4.3-11.1,6.9-10.9c6.5,0.5,9.4,0.2,14.9-1c1-0.2,1.9,0.1,2.6,0.8c0.6,0.8,0.6,1.8,0,3l-6.6,15
			c-2.2,5-4.4,10.1-6.6,15.3c-8.2,19.5-12.3,30.5-12.3,33c0,1.5,0.7,2.3,2.2,2.3c3.7,0,14.4-13.8,32.3-41.3
			c1.6-3.8,3.2-7.7,4.8-11.5l5.3-11.8c1.2-2.8,2.5-4.3,4-4.3c0.6,0,1.8-0.1,3.6-0.3c1.8-0.2,3-0.3,3.6-0.3c2.9,0,3.8,1.2,2.6,3.5
			c-16.3,35-24.4,56.5-24.4,64.5c0,2.7,0.7,4,2.2,4c2.2,0,5.3-2.4,9.2-7.3c1-1.2,1.8-2.1,2.4-2.9c0.6-0.8,1.1-1.4,1.4-1.9
			c0.4-0.5,0.7-1,0.9-1.4c0.2-0.4,0.5-1,0.8-1.9c0.4-0.2,0.9-0.3,1.3-0.5c0.1-0.2,0.3-0.2,0.4,0h0.2c1,0,1.7,0.3,2,1L1487.2,667.1z"
			/>
		<path fill="#FFFFFF" d="M1557.4,613.8c0,0.5-0.4,1.5-1.3,3c-0.3,0.5-4.2,10.5-11.7,30c-6.6,17.2-9.9,27.6-9.9,31.3
			c0,2.5,0.9,3.8,2.6,3.8c3.4,0,8.9-5.2,16.7-15.5c0.6-0.2,1.2,0.1,1.9,0.8c0.7,0.7,0.9,1.4,0.8,2.3c-7.9,12.8-16.1,19.3-24.6,19.3
			c-6.9,0-10.3-3.9-10.3-11.8c0-2.7,1.2-7.6,3.5-14.8c-12,17.3-21.6,26-28.8,26c-7.5,0-11.2-5.3-11.2-15.8c0-14.7,6.4-28.7,19.1-42
			c12.3-12.8,25-19.3,38.1-19.3c6.6,0,11.4,0.5,14.3,1.5C1557.1,612.8,1557.4,613.3,1557.4,613.8z M1538.7,622c0-3-1-4.5-3.1-4.5
			c-6,0-14.1,8-24.3,24c-10.2,16-15.3,27.9-15.3,35.8c0,3,1.2,4.5,3.5,4.5c3.8,0,11.5-8.3,23.1-24.8c5.3-7.7,9.3-14.6,12-20.8
			C1537.3,630.1,1538.7,625.3,1538.7,622z"/>
		<path fill="#FFFFFF" d="M344.5,780.8c0,24.5-8.1,48.1-24.2,70.8c-14.5,20.8-33.3,37.8-56.2,50.9c-23,13.1-44.8,19.6-65.7,19.6
			c-3.8,0-7.6-0.3-11.2-1c1.8,5.7,4.7,11.1,8.8,16.3c0.1,1-0.3,1.9-1.3,2.6c-1,0.8-2.1,0.9-3.1,0.4c-5-5.3-8.4-12.2-10.3-20.5
			c-22.4-6-33.7-22.4-33.7-49.3c0-23.8,8.3-46.9,24.9-69.3c14.8-20,34-36.5,57.4-49.5c22.9-12.5,44.4-18.8,64.7-18.8
			c13.3,0,23.8,1.8,31.2,5.3c0.4,0.8,0.4,1.7,0,2.5c-0.6,0.8-1.3,1.3-2.2,1.5c-6.5-2.7-16.1-4-29-4c-18,0-37.9,7.4-59.6,22.3
			c-21.1,14.5-38.8,32.4-53,53.8c-15.3,23-22.9,45-22.9,66c0,17.5,7,28.8,21.1,34c-0.9-5.3-1.3-11.3-1.3-17.8c0-23.3,6-47,17.9-71
			c12-24,27.2-43.6,45.9-58.8c19.9-16.2,40.2-24.3,60.7-24.3c13.2,0,23.5,3.9,31,11.8C341.1,761.3,344.5,770.1,344.5,780.8z
			 M336.1,777.5c0-9.5-3.1-16.8-9.2-22c-6.2-5.2-14-7.8-23.5-7.8c-18,0-36.7,8.8-56.1,26.3c-17.6,16-32.5,36.2-44.5,60.5
			c-12.1,24.3-18.2,46.6-18.2,66.8c0,5.2,0.4,10,1.3,14.5c2.5,0.5,4.8,0.8,7,0.8c18.3,0,38.9-7,61.6-20.9
			c22.7-13.9,41.7-31.2,56.8-51.9C327.8,821.1,336.1,799,336.1,777.5z"/>
		<path fill="#FFFFFF" d="M375,844c2.2,0,4.3,0,6.4,0.1c2.1,0.1,4.1,0.1,6.2,0.1c1.6,0,2.4,0.8,2.4,2.5c0,0.7-0.1,1.2-0.2,1.5
			c-3.4,7.5-6.6,14.9-9.7,22.3c-3.1,7.3-5.8,14-8.3,20c-2.4,6-4.3,11-5.7,14.9c-1.4,3.9-2.1,6.3-2.1,7.1c0,2.2,0.8,3.3,2.4,3.3
			c0.9,0,2.1-0.5,3.7-1.5c1.6-1,3.3-2.3,5.1-3.9c1.8-1.6,3.5-3.3,5.2-5.1c1.7-1.8,3.1-3.5,4.3-5h0.2c0.6,0,1.1,0.3,1.6,0.8
			c0.5,0.5,0.8,1.2,0.8,2c-1.6,2.5-3.4,4.9-5.5,7.3c-2.1,2.3-4.2,4.4-6.4,6.1c-2.2,1.8-4.4,3.1-6.7,4.1c-2.3,1-4.3,1.5-6.1,1.5
			c-7.3,0-11-4-11-12c0-1.2,0.6-3.5,1.7-7.1c1.1-3.6,2.6-8,4.4-13.4c1.8-5.3,4.1-11.4,6.7-18.3c2.6-6.8,5.5-14.1,8.6-21.8
			c-3.5,0.3-6.7,2.3-9.5,6c-2.8,3.7-5.5,8.1-8.1,13.4c-2.6,5.3-5.3,10.9-7.9,17c-2.6,6.1-5.5,11.8-8.7,17
			c-3.2,5.3-6.6,9.7-10.5,13.3c-3.8,3.6-8.1,5.5-13,5.6c-3.7,0-6.7-1.6-9.2-4.8c-2.5-3.2-3.7-7-3.7-11.5c0-4.2-4.4-8.5-4.4-8.5
			s13.2-3.3,15.5-3.3c4.4,0,5.4,1.2,5.4,6.1c0,1.8-0.5,3.5-1.6,4.9c-1.1,1.4-2.2,2.8-3.3,4.1c-1.1,1.3-1.8,2.6-2.2,3.8
			c-0.4,1.2,0.3,2.3,1.9,3.5c4.3,0.8,8.1-0.4,11.7-3.6c3.5-3.3,6.9-7.5,10-12.9c3.2-5.3,6.2-11.2,9-17.6c2.9-6.4,5.9-12.4,9-18
			c3.2-5.6,6.5-10.3,9.9-14c3.4-3.8,7.3-5.6,11.5-5.6C375,844.3,375,844.2,375,844z"/>
		<path fill="#FFFFFF" d="M414.4,919c1.8,0,3.7-0.6,5.8-1.8c2.1-1.2,4.2-2.7,6.2-4.6c2-1.9,3.9-4,5.6-6.4c1.8-2.3,3.2-4.8,4.4-7.3
			c-2.1-1.3-3.9-3-5.6-4.9c-1.7-1.9-2.6-4.2-2.8-6.9c-0.1-3.8,0.7-7.3,2.6-10.3c1.9-3,4.5-4.6,7.9-4.8c3.1-0.5,5.5,0,7.3,1.4
			c1.8,1.4,3,3.4,3.7,5.9c0.7,2.5,1,5.4,0.8,8.8c-0.2,3.3-0.8,6.6-1.9,9.8c0.7,0.2,1.3,0.3,1.8,0.3c0.9,0,0-1.9,0.8-2.3
			c0.8-0.4,1.1-3.5,2.2-4.2c0.7,0,1.1,3.1,1.3,3.7c0.2,0.6-1.6,3.6-1.6,3.6s-1.7,1.5-3,2.2c-1.3,0.7,0.4,1-1.3,1
			c-0.7,0-1.4-0.1-2-0.3c-1.8,3.3-4,6.3-6.7,8.9c-2.7,2.6-5.6,4.8-8.7,6.8c-3.1,1.9-6.3,3.3-9.6,4.3c-3.3,0.9-6.4,1.3-9.4,1.1
			c-7.6,0.3-11.4-3.5-11.4-11.5c0-2.5,1.5-8.2,4.6-17.1c3.1-8.9,7.7-21.7,13.9-38.4c0.1-0.3,0.2-0.5,0.2-0.6c0-0.1,0.1-0.3,0.2-0.6
			c0-0.7-0.4-1.1-1.1-1.3c-0.7-0.2-1.5-0.3-2.3-0.5c-0.8-0.2-1.5,0.1-1.5,0.1l2-4l1-2.8h4.6c2.2-0.2,4.4-0.5,6.5-0.9
			c2.1-0.4,4.2-0.7,6.3-0.9c1.5,0,2.2,0.8,2.2,2.5c0,0.3,0.1,0.6,0.2,0.8c0.1,0.2,0.1,0.4,0,0.8c-3.2,7.7-6.4,15.3-9.5,23
			c-3.1,7.7-5.8,14.6-8.3,20.9c-2.4,6.3-4.4,11.5-5.8,15.8c-1.5,4.3-2.2,6.8-2.2,7.6C412.1,917.9,413,919,414.4,919z M442.1,882
			c-0.3-4.7-1.5-6.8-3.7-6.5c-1.3,0-2.8,1.1-4.5,3.3c-1.7,2.2-2.5,4.9-2.3,8.3c0.1,2.2,0.9,4,2.3,5.6c1.4,1.6,2.9,2.5,4.5,2.9
			c1.5-2.8,2.5-5.3,3-7.5C441.9,885.8,442.1,883.8,442.1,882z"/>
		<path fill="#FFFFFF" d="M481.2,879.2c2.1-3.3,4.3-6.8,6.8-10.4c2.5-3.6,4.5-6.9,6.2-9.9c1.6-3,2.4-5.5,2.4-7.5s-1.5-3-4.4-3
			c-2.8,0-5.9,1.4-9.2,4.3c-3.4,2.8-6.5,6.9-9.5,12.3c-1.2,0.3-1.9,0.5-2.2,0.5c-1,0-1.7-0.7-2-2c3.2-5.7,7-10.4,11.4-14.1
			c4.4-3.8,8.5-5.8,12.3-6.1c6.6-0.7,10.9,0.3,12.9,2.8c2,2.5,2.5,5.9,1.6,10.1c-0.9,4.3-2.8,9.1-5.8,14.6c-3,5.5-6.1,11-9.4,16.5
			c-3.2,5.5-6.2,10.7-8.9,15.5c-2.7,4.8-4.2,8.8-4.5,11.8c-0.1,1.2,0.2,2,1,2.5c0.8,0.5,1.6,0.8,2.3,0.8c0.9,0,2.2-0.6,4.1-1.8
			c1.8-1.2,3.7-2.6,5.7-4.4c2-1.8,3.9-3.6,5.8-5.6c1.9-2,3.4-3.8,4.6-5.3h0.2c0.6,0,1.1,0.3,1.7,0.8c0.5,0.5,0.4,0.8,0.4,1.7
			c-1.6,2.5-3.2,5.3-5.4,7.7c-2.2,2.4-4.5,4.6-6.8,6.5c-2.3,1.9-4.7,3.4-6.9,4.4c-2.3,1-4.3,1.3-6,0.8c-5.3-1.2-8.7-3.3-10.2-6.3
			c-1.5-3-1.9-6.5-1-10.5c0.9-4,2.6-8.3,5.1-12.9C476,888.3,478.6,883.7,481.2,879.2z"/>
		<path fill="#FFFFFF" d="M582.6,848.6c-16.3,35-24.4,56.5-24.4,64.5c0,2.7,0.7,4,2.2,4c2.2,0,5.3-2.5,9.3-7.4c4-4.9,6.6-9,7.8-12.1
			c2.2-1,3.7-0.7,4.4,1c-1.6,4.2-4.6,8.8-9,14c-5.7,6.8-11.3,10.3-16.7,10.3c-2.2,0-4.2-1-5.9-3c-2.2-2.2-3.3-5.1-3.3-8.8
			c0-3.7,1.2-9.3,3.7-17c-12.9,19-22.7,28.5-29.3,28.5c-6.6,0-9.9-3.7-9.9-11c0-4.2,3-13.6,9-28.3c3.7-9.2,7.4-18.3,11.2-27.3
			c0.6-1.8-1.8-2.8-1.8-2.8l-1-3.8l2-3.5c0,0,10.2,0.2,15.9-1c1.2-0.3,2.1-0.1,2.6,0.8c0.6,0.7,0.6,1.7,0,3
			c-4.4,10-8.8,20.1-13.2,30.3c-8.2,19.2-12.3,30.2-12.3,33c0,1.5,0.7,2.3,2.2,2.3c3.7,0,14.4-13.8,32.3-41.3
			c3.2-7.5,6.6-15.3,10.1-23.3c1.2-2.8,2.5-4.3,4-4.3c0.6,0,1.8-0.1,3.6-0.3c1.8-0.2,3-0.3,3.6-0.3
			C582.7,845.1,583.6,846.3,582.6,848.6z"/>
		<path fill="#FFFFFF" d="M774.6,801.5c-4-0.5-7-0.8-9.1-1c-2.1-0.2-4.2-0.3-6.3-0.3c-22.4,0-42.3,7.2-59.6,21.5
			c-16.4,13.7-24.6,28.8-24.6,45.5c0,16.8,7.3,29.6,22,38.3c12.5,7.5,29,11.3,49.5,11.3c41.2,0,73-20.8,95.5-62.5l4.8-9.3
			c2.8-5.8,5.6-11.6,8.4-17.4c2.8-5.8,5.6-11.5,8.6-17.4c5.6-11.3,10.4-19.5,14.5-24.5c4.8-6,11.2-11.4,19.1-16.3
			c5.6-3.7,9.8-5.8,12.8-6.3c1.9-0.2,2.9,0.3,2.9,1.5c0,1.5-1,2.6-2.9,3.3c-7.3,3.5-14.8,11.3-22.4,23.5c-2.5,4-6,11.5-10.6,22.5
			c-3.5,8.5-6.3,15.3-8.5,20.4c-2.1,5.1-3.6,8.5-4.3,10.1l-4.4,9.5c-3.2,7-6.5,12.7-9.7,17c-9.1,13-22.3,24.3-39.6,33.8
			c-21,11.5-42.9,17.3-65.8,17.3c-25.1,0-45-5.3-59.6-15.8c-14.7-10.7-22-24.6-22-41.8c0-17.3,8.5-33.2,25.5-47.5
			c17.9-15.2,39.3-22.8,64.2-22.8c3.4,0,6.7,0.1,10.1,0.4c3.4,0.3,6.7,0.7,9.9,1.4c19.2,4.2,35.8,11.5,49.7,22
			c0.3,0.7,0.4,1.2,0.4,1.5c0,1.3-0.9,2-2.6,2c-0.4,0-1.1-0.2-2-0.5C807,812,792.3,805.5,774.6,801.5z M779.2,797
			c-1.3,5.8-2,9.8-2,12c0,4.7,1,9.5,2.9,14.5c0.1,1.2-0.2,1.8-1.1,2c-0.9,0.2-1.9-0.3-3.1-1.3c-2.9-5.7-4.4-11.4-4.4-17.3
			c0-0.8,0-1.6,0-2.4s0.1-1.5,0.2-2.4l0.7-6.5c4.7-15.8,16-29.8,33.9-42c20.1-13.8,42.8-20.8,68-20.8c9.2,0,22.4,3.3,39.6,9.8
			c17.6,6.3,27.4,9.5,29.5,9.5c4.3,0,7.8-2.7,10.8-8c1-0.7,1.9-0.8,2.6-0.3c0.9,0.8,1.1,2.1,0.7,3.8c-1.6,4.3-4.4,8.1-8.4,11.3
			c-5.4,4.7-11.7,7-18.7,7c-4.8,0-16.5-3.8-35-11.5c-18.3-7.7-33.2-11.5-44.7-11.5c-14.7,0-29.2,5.6-43.6,16.8
			C792.6,770.9,783.3,783.3,779.2,797z"/>
		<path fill="#FFFFFF" d="M930,847.8c0,0.5-0.4,1.5-1.3,3c-0.3,0.5-4.2,10.5-11.7,30c-6.6,17.2-9.9,27.6-9.9,31.3
			c0,2.5,0.9,3.8,2.6,3.8c3.4,0,8.9-5.2,16.7-15.5c0.6-0.2,1.2,0.1,1.9,0.8c0.7,0.7,0.9,1.4,0.8,2.3c-7.9,12.8-16.1,19.3-24.6,19.3
			c-6.9,0-10.3-3.9-10.3-11.8c0-2.7,1.2-7.6,3.5-14.8c-12,17.3-21.6,26-28.8,26c-7.5,0-11.2-5.3-11.2-15.8c0-14.7,6.4-28.7,19.1-42
			c12.3-12.8,25-19.3,38.1-19.3c6.6,0,11.4,0.5,14.3,1.5C929.7,846.8,930,847.3,930,847.8z M911.3,856c0-3-1-4.5-3.1-4.5
			c-6,0-14.1,8-24.3,24c-10.2,16-15.3,27.9-15.3,35.8c0,3,1.2,4.5,3.5,4.5c3.8,0,11.5-8.3,23.1-24.8c5.3-7.7,9.3-14.6,12-20.8
			C909.9,864.1,911.3,859.3,911.3,856z"/>
		<path fill="#FFFFFF" d="M998,844c2.2,0,4.3,0,6.4,0.1c2.1,0.1,4.1,0.1,6.2,0.1c1.6,0,2.4,0.8,2.4,2.5c0,0.7-0.1,1.2-0.2,1.5
			c-3.4,7.5-6.6,14.9-9.7,22.3c-3.1,7.3-5.8,14-8.3,20c-2.4,6-4.3,11-5.7,14.9c-1.4,3.9-2.1,6.3-2.1,7.1c0,2.2,0.8,3.3,2.4,3.3
			c0.9,0,2.1-0.5,3.7-1.5c1.6-1,3.3-2.3,5.1-3.9c1.8-1.6,3.5-3.3,5.2-5.1c1.7-1.8,3.1-3.5,4.3-5h0.2c0.6,0,1.1,0.3,1.7,0.8
			c0.5,0.5,0.8,1.2,0.8,2c-1.6,2.5-3.4,4.9-5.5,7.3c-2.1,2.3-4.2,4.4-6.4,6.1c-2.2,1.8-4.4,3.1-6.7,4.1c-2.3,1-4.3,1.5-6,1.5
			c-7.3,0-11-4-11-12c0-1.2,0.5-3.5,1.6-7.1c1.1-3.6,2.6-8,4.4-13.4c1.8-5.3,4.1-11.4,6.7-18.3c2.6-6.8,5.5-14.1,8.6-21.8
			c-3.5,0.3-6.7,2.3-9.5,6c-2.8,3.7-5.5,8.1-8.1,13.4c-2.6,5.3-5.3,10.9-7.9,17c-2.6,6.1-5.5,11.8-8.7,17
			c-3.2,5.3-6.6,9.7-10.5,13.3c-3.8,3.6-8.1,5.5-13,5.6c-3.7,0-6.7-1.6-9.2-4.8c-2.5-3.2-3.7-7-3.7-11.5c0-4.2,1.1-7.4,3.2-9.6
			c2.1-2.3,4.4-3.4,6.7-3.4c4.4,0,6.6,2.4,6.6,7.3c0,1.8-0.5,3.5-1.7,4.9c-1.1,1.4-2.2,2.8-3.3,4.1c-1.1,1.3-1.8,2.6-2.2,3.8
			c-0.4,1.2,0.3,2.3,1.9,3.5c4.3,0.8,8.1-0.4,11.7-3.6c3.5-3.3,6.9-7.5,10-12.9c3.2-5.3,6.2-11.2,9-17.6c2.9-6.4,5.9-12.4,9-18
			c3.2-5.6,6.5-10.3,9.9-14c3.4-3.8,7.3-5.6,11.5-5.6C998,844.3,998,844.2,998,844z"/>
		<path fill="#FFFFFF" d="M1089.6,848.6c-16.3,35-24.4,56.5-24.4,64.5c0,2.7,0.7,4,2.2,4c2.2,0,5.3-2.5,9.3-7.4
			c4-4.9,6.6-9,7.8-12.1c2.2-1,3.7-0.7,4.4,1c-1.6,4.2-4.6,8.8-9,14c-5.7,6.8-11.3,10.3-16.7,10.3c-2.2,0-4.2-1-5.9-3
			c-2.2-2.2-3.3-5.1-3.3-8.8c0-3.7,1.2-9.3,3.7-17c-12.9,19-22.7,28.5-29.3,28.5c-6.6,0-9.9-3.7-9.9-11c0-4.2,3-13.6,9-28.3
			c3.7-9.2,7.4-18.3,11.2-27.3c0.6-1.8-3.8-2.8-3.8-2.8l1-3.8l1-3.5c0,0,11.2,0.2,16.9-1c1.2-0.3,2.1-0.1,2.6,0.8
			c0.6,0.7,0.6,1.7,0,3c-4.4,10-8.8,20.1-13.2,30.3c-8.2,19.2-12.3,30.2-12.3,33c0,1.5,0.7,2.3,2.2,2.3c3.7,0,14.4-13.8,32.3-41.3
			c3.2-7.5,6.6-15.3,10.1-23.3c1.2-2.8,2.5-4.3,4-4.3c0.6,0,1.8-0.1,3.6-0.3c1.8-0.2,3-0.3,3.6-0.3
			C1089.7,845.1,1090.6,846.3,1089.6,848.6z"/>
		<path fill="#FFFFFF" d="M1149.9,849c1.6-1.2,3.4-2,5.5-2.5c2.1-0.5,3.9-0.8,5.5-0.8c1.6,0,2.4,0.9,2.4,2.8c-0.1,0-0.8,1.5-2.1,4.4
			c-1.2,2.9-2.8,6.6-4.7,11.1c-1.9,4.5-3.9,9.4-6,14.8c-2.1,5.3-4.1,10.4-5.9,15.3c-1.8,4.8-3.3,9-4.5,12.6
			c-1.2,3.6-1.8,5.9-1.8,6.9c0,2.5,1.3,3.8,4,3.8c5.3,0,16.4-14.6,21.8-25.3c1.2-0.3,2,4.2,2,4.2l-3.6,6.6c0,0-6.2,10.5-10.6,14.4
			c-4.4,3.9-8.4,5.9-12.1,5.9c-4.3,0-7.2-0.9-8.8-2.8c-1.6-1.8-2.4-4.7-2.4-8.5c0-3.7,0.7-8.3,2.2-13.8c1-4,2.2-8.1,3.5-12.3h-0.4
			c-2.9,0-6.1,0.1-9.5,0.3c-2.5,0-4.8,0.1-7,0.3c-0.3,0.7-0.6,1.3-0.9,2l-11.7,30c-1.2,1.8-2.6,3-4.4,3.4c-1.8,0.4-3.7,0.6-5.7,0.6
			c-1.8,0-2.6-1-2.6-3c0-0.5,4-10.4,12.1-29.8c7-17.2,8.9-30.5,8.9-30.5l1.6-6.4l-8.1,7.9l-0.6-1.4l2-4l4.1-7c0,0,1-1.3,3.1-1.6
			c2.1-0.3,3.5-0.5,4.4-0.5c2.1,0,3.9,0.8,5.6,2.4c1.7,1.6,2.5,3.8,2.5,6.6c0,4.5-2.8,13.4-8.4,26.8c1.8,0,3.8,0,6.2,0
			c2.8,0.2,6.2,0.3,10.1,0.3c0.1-0.3,0.3-0.7,0.4-1c2.2-6,4.5-11.8,7-17.5C1145.5,857.8,1147.8,853,1149.9,849z"/>
		<path fill="#FFFFFF" d="M1215,858.8c0,4.2-1.1,7.4-3.2,9.6c-2.1,2.3-4.4,3.4-6.7,3.4c-4.4,0-6.6-2.4-6.6-7.3
			c0-2.3,1.1-4.5,3.4-6.6c2.3-2.1,3.4-3.6,3.4-4.6c0-1.7-0.7-2.5-2.2-2.5c-5,0-11.1,8.5-18.3,25.5c-6.6,16-9.9,27.8-9.9,35.3
			c0,3.7,1.4,5.5,4.2,5.5c3.7,0,8.2-2.7,13.6-8c4.5-4.3,7.7-8.2,9.5-11.5c0.7-0.3,1.5-0.1,2.3,0.6c0.8,0.8,1.2,1.7,1.2,2.9
			c-2.6,4.2-6.1,8.3-10.3,12.5c-6.5,6.3-12.6,9.5-18.5,9.5c-9.5,0-14.3-6.9-14.3-20.8c0-12,4.7-24.5,14-37.5
			c9.3-13,18.4-19.5,27.4-19.5C1211.3,845.3,1215,849.8,1215,858.8z"/>
		<path fill="#FFFFFF" d="M1296,788.5c0,10-8.8,28.5-18.9,38.8s-27.6,10.3-27.6,10.3l-12.2,44.5l8.8,12.8c0,0,15,20.5,19.8,21
			c5.4,0.7,9.9-1.2,13.4-5.5c0.3-0.5,0.7-0.8,1.1-0.8c1.8,0,2.6,0.9,2.6,2.8c0,0.5-0.2,1-0.7,1.5c-6.9,6.5-14.2,9.8-22,9.8
			c-5.4,0-10.9-3.1-16.3-9.3c-1-1.2-5.1-6.8-12.1-17c-4,11.2-6.2,17.6-6.6,19.3c-0.6,2.2-4.7,4.5-12.3,7c-0.9,0.3-1.5,0.2-1.8-0.5
			c-0.4-0.8-0.4-2.1,0.2-3.8l34.3-94c4.5-12.2,10.7-23.1,18.5-32.8c8.5-10.3,16.2-15.5,23.1-15.5C1293.1,777,1296,780.8,1296,788.5z
			 M1287.4,787.3c0-2.7,0.1-4.3-2.6-4s-14.8,7.3-23.3,20.8s-13.5,28.6-13.5,28.6s16.7,1.3,25.3-11.8
			C1282.7,806.4,1287.4,795.3,1287.4,787.3z"/>
		<path fill="#FFFFFF" d="M1352.8,887.8c-2.5,2.8-5.3,4.3-8.4,4.3c-0.4,0-1.1-0.1-2-0.3c-4.3,8.8-9.7,16.3-16.3,22.4
			c-6.6,6.1-12.7,9.1-18.3,9.1c-11.3,0-16.9-6.4-16.9-19.3c0-13.8,4.8-27.1,14.5-39.9c9.7-12.8,20.5-19.1,32.6-19.1
			c2.1,0,3.1,0.5,3.1,1.5c0,1.7-1,2.5-3.1,2.5c-8.2,0-16.5,8.2-24.9,24.5c-7.6,15-11.4,27.6-11.4,37.8c0,5.3,2.2,8,6.6,8
			c4,0,8.5-3.1,13.8-9.3c5.2-6.2,9.6-13.4,13.3-21.8c-4.7-4-7-9.6-7-16.8c0-6.3,1.2-11.3,3.7-14.8c2.2-3,4.6-4.5,7.3-4.5
			c6.3,0,9.5,4.8,9.5,14.3c0,6.7-1.5,13.7-4.6,21c1,0.2,1.6,0.3,1.8,0.3c1.8,0,3.6-0.9,5.5-2.8
			C1352.9,885.3,1353.3,886.3,1352.8,887.8z M1341.5,865.3c0-5.7-1-8.5-3.1-8.5c-2.6,0-4,4.7-4,14c0,6,1,10.3,2.9,13
			C1340.1,876.4,1341.5,870.3,1341.5,865.3z"/>
		<path fill="#FFFFFF" d="M1429.1,849.8c-16.3,35-24.4,56.5-24.4,64.5c0,2.7,0.7,4,2.2,4c2.2,0,5.3-2.5,9.3-7.4
			c4-4.9,6.6-9,7.8-12.1c2.2-1,3.7-0.7,4.4,1c-1.6,4.2-4.6,8.8-9,14c-5.7,6.8-11.3,10.3-16.7,10.3c-2.2,0-4.2-1-5.9-3
			c-2.2-2.2-3.3-5.1-3.3-8.8c0-3.7,1.2-9.3,3.7-17c-12.9,19-22.7,28.5-29.3,28.5c-6.6,0-9.9-3.7-9.9-11c0-4.2,3-13.6,9-28.3
			c3.7-9.2,7.4-18.3,11.2-27.3c0.6-1.8-2.2-3.2-2.2-3.2l1-3.3l2-3.5c0,0,8.7,0.2,14.4-1c1.2-0.3,2.1-0.1,2.6,0.8
			c0.6,0.7,0.6,1.7,0,3c-4.4,10-8.8,20.1-13.2,30.3c-8.2,19.2-12.3,30.2-12.3,33c0,1.5,0.7,2.3,2.2,2.3c3.7,0,14.4-13.8,32.3-41.3
			c3.2-7.5,6.6-15.3,10.1-23.3c1.2-2.8,2.5-4.3,4-4.3c0.6,0,1.8-0.1,3.6-0.3c1.8-0.2,3-0.3,3.6-0.3
			C1429.2,846.3,1430.1,847.4,1429.1,849.8z M1403.3,803.5c0.6,0.3,1.4,1.4,2.4,3.1c1,1.8,2.5,4.1,4.4,7.1c2.2,3.2,4.7,4.8,7.5,4.8
			c4.4,0,8.8-4,13.2-12c2.6-0.5,4.2,0.4,4.6,2.8c-1.2,1.8-2.5,3.7-3.8,5.6c-1.4,1.9-3.1,3.8-5.2,5.6c-4.7,4.7-9.8,7-15.2,7
			c-4.3,0-7.7-1-10.2-2.9c-2.6-1.9-4.2-4.2-5-6.8c-0.7-2.6-0.5-5.3,0.7-8C1397.9,807.1,1400.1,805,1403.3,803.5z"/>
	</g>
	<g>
		<path fill="#FFFFFF" d="M1241.4,880.1c14.1-10,23.2-15.7,27.1-17.1c3-1.1,4.7-0.9,5.2,0.3c0.1,0.2-0.2,2.1-0.9,5.7
			c0.1,0.4,0.7,0.5,1.8,0.4c1.1-0.1,1.9-0.4,2.3-0.7c3.1-4.8,3.9-9.2,2.5-13.1c-1.3-3.7-4.7-4.5-10.2-2.6c-5,1.8-14.9,7.9-29.5,18.5
			C1239.6,871.5,1225.7,891.3,1241.4,880.1z"/>
	</g>
	<path fill="#FFFFFF" d="M1246,837l-17-5c0,0-2-1-2-2s2-1,2-1l16,3L1246,837z"/>
	<path fill="#FFFFFF" d="M1012,677l35.7-64.3l3.3,1.8c0,0-33.3,60.8-35.5,63S1012,677,1012,677z"/>
	<path fill="#FFFFFF" d="M1327.9,672.5l32.4-57.7l2.8,1.6c0,0-30.2,54.5-32.2,56.5C1329,675,1327.9,672.5,1327.9,672.5z"/>
	<path fill="#FFFFFF" d="M1408.1,667.9l30-55.7l4,1.4c0,0-30.6,56.9-33,59.4C1406.6,675.5,1408.1,667.9,1408.1,667.9z"/>
	<path display="none" fill="#353535" d="M245.1,907.8l68-13.7l2.1,8.7c0,0-64,11.4-67.2,11.1C244.8,913.6,245.1,907.8,245.1,907.8z"
		/>
	<path display="none" fill="#353535" d="M315.2,902.8c0,0-65.3,12-67.2,11.1c-2-0.9-2.9-6.1-2.9-6.1"/>
	<path display="none" fill="#353535" d="M315.2,902.8c0,0-84.7,14.6-86.7,14.7c-2,0.1,16.6-9.7,16.6-9.7"/>
	<polygon fill="#FFFFFF" points="379,908.4 418.1,848.6 420.8,850.7 387.4,903 	"/>
	<polygon fill="#FFFFFF" points="448.4,899 472.1,858.9 475,862 455,895 	"/>
	<polygon fill="#FFFFFF" points="220,919 302.4,905.5 314,893 259,905 	"/>
	<path fill="#FFFFFF" d="M493.6,910.6c2.4-2.6,36.9-62.6,36.9-62.6l4,1.4c0,0-28.3,52.8-31.4,56.7
		C499.9,910,491.1,913.1,493.6,910.6z"/>
	<polygon fill="#FFFFFF" points="760,921 857.3,907.5 871,895 806.1,907 	"/>
	<path fill="#FFFFFF" d="M1004.1,904.5l32.4-54.3l3.9,1.6c0,0-30.7,53.1-33.2,55.4C1004.7,909.5,1004.1,904.5,1004.1,904.5z"/>
	<path fill="#FFFFFF" d="M1081.4,903.7L1110,851l5.4-1.6c0,0-18.2,35.5-27.4,51.6c-2.5,4.3-5.1,7.2-5.6,7.7
		C1080,911.2,1081.4,903.7,1081.4,903.7z"/>
	<path fill="#FFFFFF" d="M1199.8,902l42.3-63.9l7.4-1.4c0,0-29.3,44.9-43.8,65.2c-3.9,5.4-7.8,8.9-8.6,9.6
		C1193.5,914.4,1199.8,902,1199.8,902z"/>
	<path fill="#FFFFFF" d="M1277.2,914.3l22.1-38.9l5-0.4c0,0-10.6,27.2-22,39c-3,3.1-4.6,2.6-5.2,2.9
		C1274.5,918.6,1277.2,914.3,1277.2,914.3z"/>
	<path fill="#FFFFFF" d="M1352.4,884.5l26.9-35.7l4.7-0.8c0,0-18.6,25.1-27.9,36.5c-2.5,3-5,5-5.4,5.3
		C1348.4,891.4,1352.4,884.5,1352.4,884.5z"/>
</g>
</svg>
